<svg width="24" height="24" viewBox="0 0 24 24" fill="none" xmlns="http://www.w3.org/2000/svg">
  <path d="M14 2H6C4.9 2 4 2.9 4 4V20C4 21.1 4.9 22 6 22H18C19.1 22 20 21.1 20 20V8L14 2Z" fill="#9C27B0"/>
  <path d="M14 8H20L14 2V8Z" fill="#7B1FA2"/>
  <path d="M12 17C13.6569 17 15 15.6569 15 14C15 12.3431 13.6569 11 12 11C10.3431 11 9 12.3431 9 14C9 15.6569 10.3431 17 12 17Z" stroke="white" stroke-width="1.2"/>
  <path d="M12 11V8.5" stroke="white" stroke-width="1.2"/>
  <path d="M12 17V19" stroke="white" stroke-width="1.2"/>
</svg> 